<svg aria-hidden="true" style="position: absolute; width: 0; height: 0; overflow: hidden;" version="1.1" xmlns="http://www.w3.org/2000/svg" xmlns:xlink="http://www.w3.org/1999/xlink">
  <defs>
    <symbol id="icon-trust" viewBox="0 0 512 512">
      <path d="M37.523 83.593L255.21 13.046v488.371C99.709 436.301 37.523 311.5 37.523 240.964V83.593z" fill="#0500ff" fill-rule="nonzero"/><path d="M38.154 6.673L19.433.606v42c13.372-5.6 18.721-16.333 18.721-22.399V6.673z" fill="url(#prefix___Linear1)" fill-rule="nonzero" transform="matrix(11.62788 0 0 11.62788 29.256 6)"/><defs><linearGradient id="prefix___Linear1" x1="0" y1="0" x2="1" y2="0" gradientUnits="userSpaceOnUse" gradientTransform="rotate(107.581 17.445 10.98) scale(46.5663)"><stop offset="0" stop-color="#00f"/><stop offset=".02" stop-color="#00f"/><stop offset=".08" stop-color="#0094ff"/><stop offset=".16" stop-color="#48ff91"/><stop offset=".42" stop-color="#0094ff"/><stop offset=".68" stop-color="#0038ff"/><stop offset=".9" stop-color="#0500ff"/><stop offset="1" stop-color="#0500ff"/></linearGradient></defs>
    </symbol>
    <symbol id="icon-link" viewBox="0 0 256 256">
      <path d="M165.66,90.34a8,8,0,0,1,0,11.32l-64,64a8,8,0,0,1-11.32-11.32l64-64A8,8,0,0,1,165.66,90.34ZM215.6,40.4a56,56,0,0,0-79.2,0L106.34,70.45a8,8,0,0,0,11.32,11.32l30.06-30a40,40,0,0,1,56.57,56.56l-30.07,30.06a8,8,0,0,0,11.31,11.32L215.6,119.6a56,56,0,0,0,0-79.2ZM138.34,174.22l-30.06,30.06a40,40,0,1,1-56.56-56.57l30.05-30.05a8,8,0,0,0-11.32-11.32L40.4,136.4a56,56,0,0,0,79.2,79.2l30.06-30.07a8,8,0,0,0-11.32-11.31Z"></path>
    </symbol>
  </defs>
</svg>
